<?xml version="1.0" encoding="UTF-8" standalone="no"?>
<!-- Created with Inkscape (http://www.inkscape.org/) -->

<svg
   xmlns:dc="http://purl.org/dc/elements/1.1/"
   xmlns:cc="http://creativecommons.org/ns#"
   xmlns:rdf="http://www.w3.org/1999/02/22-rdf-syntax-ns#"
   xmlns:svg="http://www.w3.org/2000/svg"
   xmlns="http://www.w3.org/2000/svg"
   xmlns:sodipodi="http://sodipodi.sourceforge.net/DTD/sodipodi-0.dtd"
   xmlns:inkscape="http://www.inkscape.org/namespaces/inkscape"
   width="600"
   height="400"
   id="svg2"
   version="1.1"
   inkscape:version="0.48.4 r9939"
   sodipodi:docname="emblem.svg"
   inkscape:export-filename="C:\Users\rgraham\Desktop\font\emblem.png"
   inkscape:export-xdpi="32.813034"
   inkscape:export-ydpi="32.813034">
  <defs
     id="defs4" />
  <sodipodi:namedview
     id="base"
     pagecolor="#ffffff"
     bordercolor="#666666"
     borderopacity="1.0"
     inkscape:pageopacity="0.0"
     inkscape:pageshadow="2"
     inkscape:zoom="1.4142136"
     inkscape:cx="170.96652"
     inkscape:cy="172.41122"
     inkscape:document-units="px"
     inkscape:current-layer="layer1"
     showgrid="false"
     inkscape:window-width="1309"
     inkscape:window-height="832"
     inkscape:window-x="-30080"
     inkscape:window-y="-32000"
     inkscape:window-maximized="0" />
  <metadata
     id="metadata7">
    <rdf:RDF>
      <cc:Work
         rdf:about="">
        <dc:format>image/svg+xml</dc:format>
        <dc:type
           rdf:resource="http://purl.org/dc/dcmitype/StillImage" />
        <dc:title></dc:title>
      </cc:Work>
    </rdf:RDF>
  </metadata>
  <g
     inkscape:label="Layer 1"
     inkscape:groupmode="layer"
     id="layer1"
     transform="translate(0,-652.36218)">
    <path
       style="fill:#007fad;fill-opacity:1;stroke:#000000;stroke-width:6.75906754;stroke-linecap:butt;stroke-linejoin:miter;stroke-miterlimit:4;stroke-opacity:1;stroke-dasharray:none"
       d="m 289.33631,733.16456 -28.67796,27.10065 -13.5662,12.82006 25.34651,0 0,32.4752 c 5.49938,-1.59365 11.30696,-2.45544 17.32009,-2.45544 5.70643,0 11.22623,0.77734 16.47524,2.21784 l 0,-32.2376 25.34651,0 z"
       id="path3775"
       inkscape:export-xdpi="8.8717747"
       inkscape:export-ydpi="8.8717747"
       inkscape:connector-curvature="0"
       sodipodi:nodetypes="cccccscccc" />
    <path
       style="fill:#007fad;fill-opacity:1;stroke:#000000;stroke-width:6.75906754;stroke-linecap:butt;stroke-linejoin:miter;stroke-miterlimit:4;stroke-opacity:1;stroke-dasharray:none"
       d="m 272.43866,923.58017 0,34.64021 -25.34651,0 42.24416,39.92076 42.24419,-39.92076 -25.34651,0 0,-34.64021 -5.25411,0 c -3.70061,0.70944 -7.52487,1.0825 -11.43234,1.0825 -3.90748,0 -7.73173,-0.37321 -11.43233,-1.0825 l -5.67655,0 z"
       id="path3775-5"
       inkscape:export-filename="C:\Users\rgraham\Desktop\font\path3775.png"
       inkscape:export-xdpi="8.8717747"
       inkscape:export-ydpi="8.8717747"
       inkscape:connector-curvature="0" />
    <path
       style="fill:#007fad;fill-opacity:1;stroke:#000000;stroke-width:6.75906754;stroke-linecap:butt;stroke-linejoin:miter;stroke-miterlimit:4;stroke-opacity:1;stroke-dasharray:none"
       d="m 381.95667,823.35585 0,25.34651 -32.92406,0 c 1.09195,4.54113 1.68976,9.27557 1.68976,14.15179 0,6.87794 -1.1544,13.48518 -3.27392,19.64353 l 34.50822,0 0,25.34651 39.92073,-42.24415 -39.92073,-42.24419 z"
       id="path3775-2"
       inkscape:export-filename="C:\Users\rgraham\Desktop\font\path3775.png"
       inkscape:export-xdpi="8.8717747"
       inkscape:export-ydpi="8.8717747"
       inkscape:connector-curvature="0" />
    <path
       style="fill:#007fad;fill-opacity:1;stroke:#000000;stroke-width:6.75906754;stroke-linecap:butt;stroke-linejoin:miter;stroke-miterlimit:4;stroke-opacity:1;stroke-dasharray:none"
       d="m 196.50475,823.35585 -39.92075,42.24419 39.92075,42.24415 0,-25.34651 34.64023,0 0,-5.80855 c -0.97928,-4.31399 -1.50496,-8.8022 -1.50496,-13.41253 0,-4.6103 0.52568,-9.09855 1.50496,-13.41254 l 0,-1.1617 -34.64023,0 0,-25.34651 z"
       id="path3775-3"
       inkscape:export-filename="C:\Users\rgraham\Desktop\font\path3775.png"
       inkscape:export-xdpi="8.8717747"
       inkscape:export-ydpi="8.8717747"
       inkscape:connector-curvature="0" />
    <path
       style="fill:#007fad;fill-opacity:1;stroke:#000000;stroke-width:5.06930113;stroke-linecap:butt;stroke-linejoin:miter;stroke-miterlimit:4;stroke-opacity:1;stroke-dasharray:none"
       d="m 232.91394,778.89385 -30.07256,0.8449 -0.84488,30.07256 9.26731,-9.26733 27.08908,29.12211 c 3.40272,-5.06428 7.53791,-9.59426 12.27721,-13.41254 l -26.98347,-28.09236 9.26731,-9.26734 z"
       id="path3775-3-1"
       inkscape:export-filename="C:\Users\rgraham\Desktop\font\path3775.png"
       inkscape:export-xdpi="8.8717747"
       inkscape:export-ydpi="8.8717747"
       inkscape:connector-curvature="0" />
    <path
       style="fill:#007fad;fill-opacity:1;stroke:#000000;stroke-width:5.06930113;stroke-linecap:butt;stroke-linejoin:miter;stroke-miterlimit:4;stroke-opacity:1;stroke-dasharray:none"
       d="m 345.28345,778.73545 9.2673,9.2937 -30.33659,25.71616 c 4.84565,3.37674 9.16702,7.44722 12.83168,12.06598 l 29.86134,-25.42571 9.29372,9.26733 -0.87129,-30.04616 -30.04616,-0.8713 z"
       id="path3775-3-1-6"
       inkscape:export-filename="C:\Users\rgraham\Desktop\font\path3775.png"
       inkscape:export-xdpi="8.8717747"
       inkscape:export-ydpi="8.8717747"
       inkscape:connector-curvature="0" />
    <path
       style="fill:#007fad;fill-opacity:1;stroke:#000000;stroke-width:5.06930113;stroke-linecap:butt;stroke-linejoin:miter;stroke-miterlimit:4;stroke-opacity:1;stroke-dasharray:none"
       d="m 337.30985,901.21715 c -3.97664,4.91104 -8.70902,9.18617 -14.01978,12.64683 l 31.47191,29.30691 -9.26732,9.2937 30.04618,-0.8713 0.87127,-30.04612 -9.29371,9.26733 -29.80855,-29.59735 z"
       id="path3775-3-1-6-8"
       inkscape:export-filename="C:\Users\rgraham\Desktop\font\path3775.png"
       inkscape:export-xdpi="8.8717747"
       inkscape:export-ydpi="8.8717747"
       inkscape:connector-curvature="0" />
    <path
       style="fill:#007fad;fill-opacity:1;stroke:#000000;stroke-width:5.06930113;stroke-linecap:butt;stroke-linejoin:miter;stroke-miterlimit:4;stroke-opacity:1;stroke-dasharray:none"
       d="m 243.73901,901.7188 -32.39599,29.0957 -9.29372,-9.26733 0.87128,30.04612 30.04618,0.8713 -9.26733,-9.2937 32.39601,-29.99336 c -4.63035,-3.23512 -8.80178,-7.08287 -12.35643,-11.45873 z"
       id="path3775-3-1-6-8-8"
       inkscape:export-filename="C:\Users\rgraham\Desktop\font\path3775.png"
       inkscape:export-xdpi="8.8717747"
       inkscape:export-ydpi="8.8717747"
       inkscape:connector-curvature="0" />
    <path
       transform="matrix(0.84488344,0,0,0.84488344,48.786151,703.39148)"
       sodipodi:type="arc"
       style="fill:none;fill-opacity:1;stroke:#000000;stroke-width:8;stroke-miterlimit:4;stroke-opacity:1;stroke-dasharray:none"
       id="path3924"
       sodipodi:cx="284.96402"
       sodipodi:cy="189.98929"
       sodipodi:rx="71.417786"
       sodipodi:ry="71.417786"
       d="m 356.38181,189.98929 a 71.417786,71.417786 0 1 1 -142.83558,0 71.417786,71.417786 0 1 1 142.83558,0 z"
       inkscape:export-xdpi="4.4358873"
       inkscape:export-ydpi="4.4358873" />
    <path
       style="fill:none;stroke:#000000;stroke-width:6.75906754;stroke-linecap:butt;stroke-linejoin:miter;stroke-miterlimit:4;stroke-opacity:1;stroke-dasharray:none"
       d="m 350.2943,862.96883 -57.95001,0 0,24.79306"
       id="path3999"
       inkscape:connector-curvature="0" />
  </g>
</svg>
